# Blender v2.76 (sub 0) OBJ File: ''
# www.blender.org
o cube
v -0.500000 0.500000 0.500000
v -0.500000 0.500000 -0.500000
v -0.500000 -0.500000 -0.500000
v 0.500000 0.500000 -0.500000
v 0.500000 -0.500000 -0.500000
v 0.500000 0.500000 0.500000
v 0.500000 -0.500000 0.500000
v -0.500000 -0.500000 0.500000
vt 0.000000 0.000000
vt 1.000000 0.000000
vt 1.000000 1.000000
vn -1.000000 -0.000000 0.000000
vn 0.000000 0.000000 -1.000000
vn 1.000000 0.000000 0.000000
vn 0.000000 -0.000000 1.000000
vn 0.000000 -1.000000 -0.000000
vn 0.000000 1.000000 0.000000
s 1
f 1/1/1 2/2/1 3/3/1
f 2/1/2 4/2/2 5/3/2
f 4/1/3 6/2/3 7/3/3
f 1/1/4 8/2/4 6/3/4
f 8/1/5 3/2/5 5/3/5
f 6/1/6 4/2/6 2/3/6
f 8/1/1 1/2/1 3/3/1
f 3/1/2 2/2/2 5/3/2
f 5/1/3 4/2/3 7/3/3
f 6/1/4 8/2/4 7/3/4
f 7/1/5 8/2/5 5/3/5
f 1/1/6 6/2/6 2/3/6
